<svg xmlns="http://www.w3.org/2000/svg" xmlns:xlink="http://www.w3.org/1999/xlink" version="1.1" width="1000" height="1000" viewBox="0 0 1000 1000" xml:space="preserve">
<desc>Created with Fabric.js 3.5.0</desc>
<defs>
</defs>
<rect x="0" y="0" width="100%" height="100%" fill="#ffffff"/>
<g transform="matrix(0.4051 0 0 0.4051 500.5149 947.2238)" id="176350">
<linearGradient id="SVGID_2" gradientUnits="objectBoundingBox" gradientTransform="matrix(1 0 0 1 1234.3 138.3044)" x1="0" y1="1" x2="0" y2="0">
<stop offset="0%" style="stop-color:rgb(0,167,209);stop-opacity: 1"/>
<stop offset="100%" style="stop-color:rgb(0,205,59);stop-opacity: 1"/>
</linearGradient>
<path style="stroke: none; stroke-width: 1; stroke-dasharray: none; stroke-linecap: butt; stroke-dashoffset: 0; stroke-linejoin: miter; stroke-miterlimit: 4; is-custom-font: none; font-file-url: none; fill: url(#SVGID_2); fill-rule: nonzero; opacity: 1;" vector-effect="non-scaling-stroke" transform=" translate(-1234.3, -138.3044)" d="M 0 189 h 17.1 c 17.2 0 51.9 0 85.9 -18 c 34.1 -18 68 -54 103 -81 c 34 -27 68 -45 103 -31.5 c 33.9 13.5 68 58.5 102 72 c 34.7 13.5 69 -4.5 103 0 c 34.6 4.5 69 31.5 103 13.5 c 34.4 -18 69 -81 103 -112.5 C 754.3 0 789 0 823 22.5 c 34.1 22.5 68 67.5 103 99 c 34 31.5 68 49.5 103 45 c 33.9 -4.5 68 -31.5 102 -45 c 34.7 -13.5 69 -13.5 103 -13.5 c 34.6 0 69 0 103 13.5 c 34.4 13.5 69 40.5 103 63 c 34.3 22.5 69 40.5 103 13.5 c 34.1 -27 68 -99 103 -99 c 34 0 68 72 103 76.5 c 33.9 4.5 68 -58.5 102 -94.5 c 34.7 -36 69 -45 103 -36 c 34.6 9 69 36 103 36 c 34.4 0 69 -27 103 -18 c 34.3 9 69 54 103 76.5 c 34.1 22.5 68 22.5 103 4.5 c 34 -18 68 -54 85 -72 l 17.6 -18 v 216 h -17.2 h -85.4 h -103 h -103 h -103 h -103 h -103 h -102 h -103 h -103 h -103 h -103 h -103 h -103 h -102 h -103 h -103 h -103 h -103 h -103 h -103 h -102 h -103 h -103 h -86 H 0 z" stroke-linecap="round"/>
</g>
</svg>