<svg xmlns="http://www.w3.org/2000/svg" viewBox="0 0 1440 270" xmlns:v="https://vecta.io/nano"><defs><linearGradient id="A" x1="0" x2="0" y1="1" y2="0"><stop stop-color="rgba(0, 167.147, 209.784, 1)" offset="0%"/><stop stop-color="rgba(0, 205.231, 59.237, 1)" offset="100%"/></linearGradient></defs><path fill="url(#A)" d="M0 189h17.1c17.2 0 51.9 0 85.9-18 34.1-18 68-54 103-81 34-27 68-45 103-31.5 33.9 13.5 68 58.5 102 72 34.7 13.5 69-4.5 103 0 34.6 4.5 69 31.5 103 13.5 34.4-18 69-81 103-112.5C754.3 0 789 0 823 22.5c34.1 22.5 68 67.5 103 99 34 31.5 68 49.5 103 45 33.9-4.5 68-31.5 102-45 34.7-13.5 69-13.5 103-13.5 34.6 0 69 0 103 13.5 34.4 13.5 69 40.5 103 63 34.3 22.5 69 40.5 103 13.5 34.1-27 68-99 103-99 34 0 68 72 103 76.5 33.9 4.5 68-58.5 102-94.5 34.7-36 69-45 103-36 34.6 9 69 36 103 36 34.4 0 69-27 103-18 34.3 9 69 54 103 76.5 34.1 22.5 68 22.5 103 4.5 34-18 68-54 85-72l17.6-18v216h-17.2-85.4-103-103-103-103-103-102-103-103-103-103-103-103-102-103-103-103-103-103-103-102-103-103-86H0z"/></svg>